solid OpenSCAD_Model
  facet normal 1 -0 0
    outer loop
      vertex 82 0 60
      vertex 82 89 0
      vertex 82 89 60
    endloop
  endfacet
  facet normal 1 0 0
    outer loop
      vertex 82 89 0
      vertex 82 0 60
      vertex 82 0 0
    endloop
  endfacet
  facet normal -0 0 1
    outer loop
      vertex 1 12 60
      vertex 81 11 60
      vertex 81 12 60
    endloop
  endfacet
  facet normal 0 0 1
    outer loop
      vertex 81 11 60
      vertex 1 12 60
      vertex 1 11 60
    endloop
  endfacet
  facet normal -0 0 1
    outer loop
      vertex 1 23 60
      vertex 81 22 60
      vertex 81 23 60
    endloop
  endfacet
  facet normal 0 0 1
    outer loop
      vertex 81 22 60
      vertex 1 23 60
      vertex 1 22 60
    endloop
  endfacet
  facet normal -0 0 1
    outer loop
      vertex 1 34 60
      vertex 81 33 60
      vertex 81 34 60
    endloop
  endfacet
  facet normal 0 0 1
    outer loop
      vertex 81 33 60
      vertex 1 34 60
      vertex 1 33 60
    endloop
  endfacet
  facet normal -0 0 1
    outer loop
      vertex 1 45 60
      vertex 81 44 60
      vertex 81 45 60
    endloop
  endfacet
  facet normal 0 0 1
    outer loop
      vertex 81 44 60
      vertex 1 45 60
      vertex 1 44 60
    endloop
  endfacet
  facet normal -0 0 1
    outer loop
      vertex 1 56 60
      vertex 81 55 60
      vertex 81 56 60
    endloop
  endfacet
  facet normal 0 0 1
    outer loop
      vertex 81 55 60
      vertex 1 56 60
      vertex 1 55 60
    endloop
  endfacet
  facet normal -0 0 1
    outer loop
      vertex 1 67 60
      vertex 81 66 60
      vertex 81 67 60
    endloop
  endfacet
  facet normal 0 0 1
    outer loop
      vertex 81 66 60
      vertex 1 67 60
      vertex 1 66 60
    endloop
  endfacet
  facet normal -0 0 1
    outer loop
      vertex 1 78 60
      vertex 81 77 60
      vertex 81 78 60
    endloop
  endfacet
  facet normal 0 0 1
    outer loop
      vertex 81 77 60
      vertex 1 78 60
      vertex 1 77 60
    endloop
  endfacet
  facet normal 0 0 1
    outer loop
      vertex 81 78 60
      vertex 82 89 60
      vertex 81 88 60
    endloop
  endfacet
  facet normal 0 0 1
    outer loop
      vertex 82 89 60
      vertex 1 88 60
      vertex 81 88 60
    endloop
  endfacet
  facet normal 0 0 1
    outer loop
      vertex 0 89 60
      vertex 1 78 60
      vertex 1 88 60
    endloop
  endfacet
  facet normal 0 0 1
    outer loop
      vertex 1 78 60
      vertex 0 89 60
      vertex 1 77 60
    endloop
  endfacet
  facet normal 0 0 1
    outer loop
      vertex 1 77 60
      vertex 0 89 60
      vertex 1 67 60
    endloop
  endfacet
  facet normal 0 0 1
    outer loop
      vertex 1 67 60
      vertex 0 89 60
      vertex 1 66 60
    endloop
  endfacet
  facet normal 0 0 1
    outer loop
      vertex 1 66 60
      vertex 0 89 60
      vertex 1 56 60
    endloop
  endfacet
  facet normal 0 0 1
    outer loop
      vertex 1 56 60
      vertex 0 89 60
      vertex 1 55 60
    endloop
  endfacet
  facet normal 0 0 1
    outer loop
      vertex 1 55 60
      vertex 0 89 60
      vertex 1 45 60
    endloop
  endfacet
  facet normal 0 0 1
    outer loop
      vertex 1 45 60
      vertex 0 89 60
      vertex 1 44 60
    endloop
  endfacet
  facet normal 0 0 1
    outer loop
      vertex 1 44 60
      vertex 0 89 60
      vertex 1 34 60
    endloop
  endfacet
  facet normal 0 0 1
    outer loop
      vertex 0 0 60
      vertex 1 34 60
      vertex 0 89 60
    endloop
  endfacet
  facet normal 0 0 1
    outer loop
      vertex 1 34 60
      vertex 0 0 60
      vertex 1 33 60
    endloop
  endfacet
  facet normal 0 0 1
    outer loop
      vertex 1 33 60
      vertex 0 0 60
      vertex 1 23 60
    endloop
  endfacet
  facet normal 0 0 1
    outer loop
      vertex 1 23 60
      vertex 0 0 60
      vertex 1 22 60
    endloop
  endfacet
  facet normal 0 0 1
    outer loop
      vertex 1 22 60
      vertex 0 0 60
      vertex 1 12 60
    endloop
  endfacet
  facet normal 0 0 1
    outer loop
      vertex 1 12 60
      vertex 0 0 60
      vertex 1 11 60
    endloop
  endfacet
  facet normal -0 0 1
    outer loop
      vertex 0 89 60
      vertex 1 88 60
      vertex 82 89 60
    endloop
  endfacet
  facet normal 0 0 1
    outer loop
      vertex 81 77 60
      vertex 82 89 60
      vertex 81 78 60
    endloop
  endfacet
  facet normal 0 0 1
    outer loop
      vertex 81 67 60
      vertex 82 89 60
      vertex 81 77 60
    endloop
  endfacet
  facet normal 0 0 1
    outer loop
      vertex 81 66 60
      vertex 82 89 60
      vertex 81 67 60
    endloop
  endfacet
  facet normal 0 0 1
    outer loop
      vertex 81 56 60
      vertex 82 89 60
      vertex 81 66 60
    endloop
  endfacet
  facet normal 0 0 1
    outer loop
      vertex 81 55 60
      vertex 82 89 60
      vertex 81 56 60
    endloop
  endfacet
  facet normal 0 0 1
    outer loop
      vertex 82 89 60
      vertex 81 55 60
      vertex 82 0 60
    endloop
  endfacet
  facet normal -0 0 1
    outer loop
      vertex 81 45 60
      vertex 82 0 60
      vertex 81 55 60
    endloop
  endfacet
  facet normal -0 0 1
    outer loop
      vertex 81 44 60
      vertex 82 0 60
      vertex 81 45 60
    endloop
  endfacet
  facet normal -0 0 1
    outer loop
      vertex 81 34 60
      vertex 82 0 60
      vertex 81 44 60
    endloop
  endfacet
  facet normal -0 0 1
    outer loop
      vertex 81 33 60
      vertex 82 0 60
      vertex 81 34 60
    endloop
  endfacet
  facet normal -0 0 1
    outer loop
      vertex 81 23 60
      vertex 82 0 60
      vertex 81 33 60
    endloop
  endfacet
  facet normal -0 0 1
    outer loop
      vertex 81 22 60
      vertex 82 0 60
      vertex 81 23 60
    endloop
  endfacet
  facet normal -0 0 1
    outer loop
      vertex 81 12 60
      vertex 82 0 60
      vertex 81 22 60
    endloop
  endfacet
  facet normal -0 0 1
    outer loop
      vertex 81 11 60
      vertex 82 0 60
      vertex 81 12 60
    endloop
  endfacet
  facet normal -0 0 1
    outer loop
      vertex 81 1 60
      vertex 82 0 60
      vertex 81 11 60
    endloop
  endfacet
  facet normal -0 0 1
    outer loop
      vertex 1 1 60
      vertex 82 0 60
      vertex 81 1 60
    endloop
  endfacet
  facet normal 0 0 1
    outer loop
      vertex 1 1 60
      vertex 0 0 60
      vertex 82 0 60
    endloop
  endfacet
  facet normal 0 0 1
    outer loop
      vertex 1 11 60
      vertex 0 0 60
      vertex 1 1 60
    endloop
  endfacet
  facet normal 0 0 -1
    outer loop
      vertex 0 0 0
      vertex 82 89 0
      vertex 82 0 0
    endloop
  endfacet
  facet normal -0 0 -1
    outer loop
      vertex 82 89 0
      vertex 0 0 0
      vertex 0 89 0
    endloop
  endfacet
  facet normal -1 0 0
    outer loop
      vertex 0 0 0
      vertex 0 89 60
      vertex 0 89 0
    endloop
  endfacet
  facet normal -1 -0 0
    outer loop
      vertex 0 89 60
      vertex 0 0 0
      vertex 0 0 60
    endloop
  endfacet
  facet normal 0 1 -0
    outer loop
      vertex 81 1 1
      vertex 1 1 60
      vertex 81 1 60
    endloop
  endfacet
  facet normal 0 1 0
    outer loop
      vertex 1 1 60
      vertex 81 1 1
      vertex 1 1 1
    endloop
  endfacet
  facet normal 0 -1 0
    outer loop
      vertex 0 0 0
      vertex 82 0 60
      vertex 0 0 60
    endloop
  endfacet
  facet normal 0 -1 -0
    outer loop
      vertex 82 0 60
      vertex 0 0 0
      vertex 82 0 0
    endloop
  endfacet
  facet normal 0 1 -0
    outer loop
      vertex 81 12 1
      vertex 1 12 60
      vertex 81 12 60
    endloop
  endfacet
  facet normal 0 1 0
    outer loop
      vertex 1 12 60
      vertex 81 12 1
      vertex 1 12 1
    endloop
  endfacet
  facet normal 0 -1 0
    outer loop
      vertex 1 11 1
      vertex 81 11 60
      vertex 1 11 60
    endloop
  endfacet
  facet normal 0 -1 -0
    outer loop
      vertex 81 11 60
      vertex 1 11 1
      vertex 81 11 1
    endloop
  endfacet
  facet normal 0 1 -0
    outer loop
      vertex 81 23 1
      vertex 1 23 60
      vertex 81 23 60
    endloop
  endfacet
  facet normal 0 1 0
    outer loop
      vertex 1 23 60
      vertex 81 23 1
      vertex 1 23 1
    endloop
  endfacet
  facet normal 0 -1 0
    outer loop
      vertex 1 22 1
      vertex 81 22 60
      vertex 1 22 60
    endloop
  endfacet
  facet normal 0 -1 -0
    outer loop
      vertex 81 22 60
      vertex 1 22 1
      vertex 81 22 1
    endloop
  endfacet
  facet normal 0 1 -0
    outer loop
      vertex 81 34 1
      vertex 1 34 60
      vertex 81 34 60
    endloop
  endfacet
  facet normal 0 1 0
    outer loop
      vertex 1 34 60
      vertex 81 34 1
      vertex 1 34 1
    endloop
  endfacet
  facet normal 0 -1 0
    outer loop
      vertex 1 33 1
      vertex 81 33 60
      vertex 1 33 60
    endloop
  endfacet
  facet normal 0 -1 -0
    outer loop
      vertex 81 33 60
      vertex 1 33 1
      vertex 81 33 1
    endloop
  endfacet
  facet normal 0 1 -0
    outer loop
      vertex 81 45 1
      vertex 1 45 60
      vertex 81 45 60
    endloop
  endfacet
  facet normal 0 1 0
    outer loop
      vertex 1 45 60
      vertex 81 45 1
      vertex 1 45 1
    endloop
  endfacet
  facet normal 0 -1 0
    outer loop
      vertex 1 44 1
      vertex 81 44 60
      vertex 1 44 60
    endloop
  endfacet
  facet normal 0 -1 -0
    outer loop
      vertex 81 44 60
      vertex 1 44 1
      vertex 81 44 1
    endloop
  endfacet
  facet normal 0 1 -0
    outer loop
      vertex 81 56 1
      vertex 1 56 60
      vertex 81 56 60
    endloop
  endfacet
  facet normal 0 1 0
    outer loop
      vertex 1 56 60
      vertex 81 56 1
      vertex 1 56 1
    endloop
  endfacet
  facet normal 0 -1 0
    outer loop
      vertex 1 55 1
      vertex 81 55 60
      vertex 1 55 60
    endloop
  endfacet
  facet normal 0 -1 -0
    outer loop
      vertex 81 55 60
      vertex 1 55 1
      vertex 81 55 1
    endloop
  endfacet
  facet normal 0 1 -0
    outer loop
      vertex 81 67 1
      vertex 1 67 60
      vertex 81 67 60
    endloop
  endfacet
  facet normal 0 1 0
    outer loop
      vertex 1 67 60
      vertex 81 67 1
      vertex 1 67 1
    endloop
  endfacet
  facet normal 0 -1 0
    outer loop
      vertex 1 66 1
      vertex 81 66 60
      vertex 1 66 60
    endloop
  endfacet
  facet normal 0 -1 -0
    outer loop
      vertex 81 66 60
      vertex 1 66 1
      vertex 81 66 1
    endloop
  endfacet
  facet normal 0 1 -0
    outer loop
      vertex 81 78 1
      vertex 1 78 60
      vertex 81 78 60
    endloop
  endfacet
  facet normal 0 1 0
    outer loop
      vertex 1 78 60
      vertex 81 78 1
      vertex 1 78 1
    endloop
  endfacet
  facet normal 0 -1 0
    outer loop
      vertex 1 77 1
      vertex 81 77 60
      vertex 1 77 60
    endloop
  endfacet
  facet normal 0 -1 -0
    outer loop
      vertex 81 77 60
      vertex 1 77 1
      vertex 81 77 1
    endloop
  endfacet
  facet normal 0 1 -0
    outer loop
      vertex 82 89 0
      vertex 0 89 60
      vertex 82 89 60
    endloop
  endfacet
  facet normal 0 1 0
    outer loop
      vertex 0 89 60
      vertex 82 89 0
      vertex 0 89 0
    endloop
  endfacet
  facet normal 0 -1 0
    outer loop
      vertex 1 88 1
      vertex 81 88 60
      vertex 1 88 60
    endloop
  endfacet
  facet normal 0 -1 -0
    outer loop
      vertex 81 88 60
      vertex 1 88 1
      vertex 81 88 1
    endloop
  endfacet
  facet normal -0 0 1
    outer loop
      vertex 1 11 1
      vertex 81 1 1
      vertex 81 11 1
    endloop
  endfacet
  facet normal 0 0 1
    outer loop
      vertex 81 1 1
      vertex 1 11 1
      vertex 1 1 1
    endloop
  endfacet
  facet normal -0 0 1
    outer loop
      vertex 1 22 1
      vertex 81 12 1
      vertex 81 22 1
    endloop
  endfacet
  facet normal 0 0 1
    outer loop
      vertex 81 12 1
      vertex 1 22 1
      vertex 1 12 1
    endloop
  endfacet
  facet normal -0 0 1
    outer loop
      vertex 1 33 1
      vertex 81 23 1
      vertex 81 33 1
    endloop
  endfacet
  facet normal 0 0 1
    outer loop
      vertex 81 23 1
      vertex 1 33 1
      vertex 1 23 1
    endloop
  endfacet
  facet normal -0 0 1
    outer loop
      vertex 1 44 1
      vertex 81 34 1
      vertex 81 44 1
    endloop
  endfacet
  facet normal 0 0 1
    outer loop
      vertex 81 34 1
      vertex 1 44 1
      vertex 1 34 1
    endloop
  endfacet
  facet normal -0 0 1
    outer loop
      vertex 1 55 1
      vertex 81 45 1
      vertex 81 55 1
    endloop
  endfacet
  facet normal 0 0 1
    outer loop
      vertex 81 45 1
      vertex 1 55 1
      vertex 1 45 1
    endloop
  endfacet
  facet normal -0 0 1
    outer loop
      vertex 1 66 1
      vertex 81 56 1
      vertex 81 66 1
    endloop
  endfacet
  facet normal 0 0 1
    outer loop
      vertex 81 56 1
      vertex 1 66 1
      vertex 1 56 1
    endloop
  endfacet
  facet normal -0 0 1
    outer loop
      vertex 1 77 1
      vertex 81 67 1
      vertex 81 77 1
    endloop
  endfacet
  facet normal 0 0 1
    outer loop
      vertex 81 67 1
      vertex 1 77 1
      vertex 1 67 1
    endloop
  endfacet
  facet normal -0 0 1
    outer loop
      vertex 1 88 1
      vertex 81 78 1
      vertex 81 88 1
    endloop
  endfacet
  facet normal 0 0 1
    outer loop
      vertex 81 78 1
      vertex 1 88 1
      vertex 1 78 1
    endloop
  endfacet
  facet normal 1 -0 0
    outer loop
      vertex 1 1 60
      vertex 1 11 1
      vertex 1 11 60
    endloop
  endfacet
  facet normal 1 0 0
    outer loop
      vertex 1 11 1
      vertex 1 1 60
      vertex 1 1 1
    endloop
  endfacet
  facet normal 1 -0 0
    outer loop
      vertex 1 45 60
      vertex 1 55 1
      vertex 1 55 60
    endloop
  endfacet
  facet normal 1 0 0
    outer loop
      vertex 1 55 1
      vertex 1 45 60
      vertex 1 45 1
    endloop
  endfacet
  facet normal 1 -0 0
    outer loop
      vertex 1 34 60
      vertex 1 44 1
      vertex 1 44 60
    endloop
  endfacet
  facet normal 1 0 0
    outer loop
      vertex 1 44 1
      vertex 1 34 60
      vertex 1 34 1
    endloop
  endfacet
  facet normal 1 -0 0
    outer loop
      vertex 1 56 60
      vertex 1 66 1
      vertex 1 66 60
    endloop
  endfacet
  facet normal 1 0 0
    outer loop
      vertex 1 66 1
      vertex 1 56 60
      vertex 1 56 1
    endloop
  endfacet
  facet normal 1 -0 0
    outer loop
      vertex 1 67 60
      vertex 1 77 1
      vertex 1 77 60
    endloop
  endfacet
  facet normal 1 0 0
    outer loop
      vertex 1 77 1
      vertex 1 67 60
      vertex 1 67 1
    endloop
  endfacet
  facet normal 1 -0 0
    outer loop
      vertex 1 78 60
      vertex 1 88 1
      vertex 1 88 60
    endloop
  endfacet
  facet normal 1 0 0
    outer loop
      vertex 1 88 1
      vertex 1 78 60
      vertex 1 78 1
    endloop
  endfacet
  facet normal 1 -0 0
    outer loop
      vertex 1 12 60
      vertex 1 22 1
      vertex 1 22 60
    endloop
  endfacet
  facet normal 1 0 0
    outer loop
      vertex 1 22 1
      vertex 1 12 60
      vertex 1 12 1
    endloop
  endfacet
  facet normal 1 -0 0
    outer loop
      vertex 1 23 60
      vertex 1 33 1
      vertex 1 33 60
    endloop
  endfacet
  facet normal 1 0 0
    outer loop
      vertex 1 33 1
      vertex 1 23 60
      vertex 1 23 1
    endloop
  endfacet
  facet normal -1 0 0
    outer loop
      vertex 81 1 1
      vertex 81 11 60
      vertex 81 11 1
    endloop
  endfacet
  facet normal -1 -0 0
    outer loop
      vertex 81 11 60
      vertex 81 1 1
      vertex 81 1 60
    endloop
  endfacet
  facet normal -1 0 0
    outer loop
      vertex 81 45 1
      vertex 81 55 60
      vertex 81 55 1
    endloop
  endfacet
  facet normal -1 -0 0
    outer loop
      vertex 81 55 60
      vertex 81 45 1
      vertex 81 45 60
    endloop
  endfacet
  facet normal -1 0 0
    outer loop
      vertex 81 34 1
      vertex 81 44 60
      vertex 81 44 1
    endloop
  endfacet
  facet normal -1 -0 0
    outer loop
      vertex 81 44 60
      vertex 81 34 1
      vertex 81 34 60
    endloop
  endfacet
  facet normal -1 0 0
    outer loop
      vertex 81 56 1
      vertex 81 66 60
      vertex 81 66 1
    endloop
  endfacet
  facet normal -1 -0 0
    outer loop
      vertex 81 66 60
      vertex 81 56 1
      vertex 81 56 60
    endloop
  endfacet
  facet normal -1 0 0
    outer loop
      vertex 81 67 1
      vertex 81 77 60
      vertex 81 77 1
    endloop
  endfacet
  facet normal -1 -0 0
    outer loop
      vertex 81 77 60
      vertex 81 67 1
      vertex 81 67 60
    endloop
  endfacet
  facet normal -1 0 0
    outer loop
      vertex 81 78 1
      vertex 81 88 60
      vertex 81 88 1
    endloop
  endfacet
  facet normal -1 -0 0
    outer loop
      vertex 81 88 60
      vertex 81 78 1
      vertex 81 78 60
    endloop
  endfacet
  facet normal -1 0 0
    outer loop
      vertex 81 12 1
      vertex 81 22 60
      vertex 81 22 1
    endloop
  endfacet
  facet normal -1 -0 0
    outer loop
      vertex 81 22 60
      vertex 81 12 1
      vertex 81 12 60
    endloop
  endfacet
  facet normal -1 0 0
    outer loop
      vertex 81 23 1
      vertex 81 33 60
      vertex 81 33 1
    endloop
  endfacet
  facet normal -1 -0 0
    outer loop
      vertex 81 33 60
      vertex 81 23 1
      vertex 81 23 60
    endloop
  endfacet
endsolid OpenSCAD_Model
